<svg width="118" height="21" viewBox="0 0 118 21" fill="none" xmlns="http://www.w3.org/2000/svg">
<path d="M93.9728 21C93.3948 21 92.8186 20.7789 92.3783 20.3386L84.1341 12.0945C83.7101 11.6705 83.4728 11.0979 83.4728 10.5V2.25401C83.4728 1.00923 84.482 0 85.7268 0C86.9716 0 87.9808 1.00923 87.9808 2.25401V9.56685L94.0108 15.5951L99.9647 9.91836V2.25401C99.9647 1.00923 100.972 0 102.219 0C103.464 0 104.475 1.00923 104.475 2.25401V10.8841C104.475 11.502 104.219 12.0908 103.773 12.5166L95.5274 20.3767C95.0925 20.7934 94.5326 21 93.9728 21Z" fill="#5A78FF"/>
<path d="M56.153 12.7534H42.5057C41.2609 12.7534 40.2517 11.7441 40.2517 10.4994C40.2517 9.25278 41.2609 8.24536 42.5057 8.24536H56.153C57.3977 8.24536 58.407 9.25278 58.407 10.4994C58.407 11.7441 57.3977 12.7534 56.153 12.7534Z" fill="#5A78FF"/>
<path d="M115.3 21C114.056 21 113.046 19.9907 113.046 18.746V2.25401C113.046 1.00923 114.056 0 115.3 0C116.545 0 117.556 1.00923 117.556 2.25401V18.746C117.556 19.9907 116.545 21 115.3 21Z" fill="#5A78FF"/>
<path d="M34.2608 4.50802C30.9577 4.50802 28.2689 7.19688 28.2689 10.5C28.2689 13.8031 30.9577 16.4919 34.2608 16.4919C37.564 16.4919 40.2528 13.8031 40.2528 10.5C40.2528 7.19688 37.564 4.50802 34.2608 4.50802ZM34.2608 21C28.4718 21 23.7609 16.289 23.7609 10.5C23.7609 4.71095 28.4718 0 34.2608 0C40.0499 0 44.7608 4.71095 44.7608 10.5C44.7608 16.289 40.0499 21 34.2608 21Z" fill="#5A78FF"/>
<path d="M64.3984 4.50802C61.0953 4.50802 58.4065 7.19688 58.4065 10.5C58.4065 13.8031 61.0953 16.4919 64.3984 16.4919C67.7015 16.4919 70.3904 13.8031 70.3904 10.5C70.3904 7.19688 67.7015 4.50802 64.3984 4.50802ZM64.3984 21C58.6094 21 53.8984 16.289 53.8984 10.5C53.8984 4.71095 58.6094 0 64.3984 0C70.1875 0 74.8984 4.71095 74.8984 10.5C74.8984 16.289 70.1875 21 64.3984 21Z" fill="#5A78FF"/>
<path d="M14.6221 21H2.25401C1.00923 21 0 19.9907 0 18.746V2.25401C0 1.00923 1.00923 0 2.25401 0C3.49879 0 4.50802 1.00923 4.50802 2.25401V16.4919H14.6221C15.8668 16.4919 16.8779 17.5012 16.8779 18.746C16.8779 19.9907 15.8668 21 14.6221 21Z" fill="#5A78FF"/>
</svg>
