<svg width="101" height="635" viewBox="0 0 101 635" fill="none" xmlns="http://www.w3.org/2000/svg">
<g clip-path="url(#clip0_8853_61100)">
<path d="M39.5711 545.028L39.5712 -379.363C39.5712 -385.326 44.4131 -390.189 50.3995 -390.189C56.3859 -390.189 61.2278 -385.348 61.2278 -379.363L61.2277 545.05C61.2277 551.013 56.3858 555.875 50.3994 555.875C44.4131 555.875 39.5711 551.035 39.5711 545.05" fill="#5A78FF"/>
<path d="M-0.000437078 584.612C-0.000435863 556.821 22.6025 534.224 50.3996 534.224C78.1966 534.224 100.8 556.821 100.8 584.612C100.8 612.402 78.1966 635 50.3996 635C22.6025 635 -0.000438293 612.402 -0.000437078 584.612ZM79.165 584.612C79.165 568.747 66.2679 555.853 50.3996 555.853C34.5313 555.853 21.6341 568.747 21.6341 584.612C21.6341 600.476 34.5313 613.37 50.3996 613.37C66.2679 613.37 79.165 600.476 79.165 584.612Z" fill="#5A78FF"/>
</g>
<defs>
<clipPath id="clip0_8853_61100">
<rect width="1025.19" height="100.8" fill="white" transform="translate(100.8 -390.189) rotate(90)"/>
</clipPath>
</defs>
</svg>
